<svg width="568" height="88" viewBox="0 0 568 88" fill="none" xmlns="http://www.w3.org/2000/svg">
<path d="M197.042 34.288C199.772 34.288 202.204 34.864 204.338 36.016C206.471 37.1253 208.156 38.8107 209.394 41.072C210.631 43.3333 211.25 46.0853 211.25 49.328V70H205.49V50.16C205.49 46.6613 204.615 43.9947 202.866 42.16C201.159 40.2827 198.834 39.344 195.89 39.344C192.86 39.344 190.45 40.3253 188.658 42.288C186.866 44.208 185.97 47.0027 185.97 50.672V70H180.21V50.16C180.21 46.6613 179.335 43.9947 177.586 42.16C175.879 40.2827 173.554 39.344 170.61 39.344C167.58 39.344 165.17 40.3253 163.378 42.288C161.586 44.208 160.69 47.0027 160.69 50.672V70H154.866V34.928H160.69V39.984C161.842 38.1493 163.378 36.7413 165.298 35.76C167.26 34.7787 169.415 34.288 171.762 34.288C174.706 34.288 177.308 34.9493 179.57 36.272C181.831 37.5947 183.516 39.536 184.626 42.096C185.607 39.6213 187.228 37.7013 189.49 36.336C191.751 34.9707 194.268 34.288 197.042 34.288ZM218.627 52.336C218.627 48.752 219.352 45.616 220.803 42.928C222.254 40.1973 224.238 38.0853 226.755 36.592C229.315 35.0987 232.152 34.352 235.267 34.352C238.339 34.352 241.006 35.0133 243.267 36.336C245.528 37.6587 247.214 39.3227 248.323 41.328V34.928H254.211V70H248.323V63.472C247.171 65.52 245.443 67.2267 243.139 68.592C240.878 69.9147 238.232 70.576 235.203 70.576C232.088 70.576 229.272 69.808 226.755 68.272C224.238 66.736 222.254 64.5813 220.803 61.808C219.352 59.0347 218.627 55.8773 218.627 52.336ZM248.323 52.4C248.323 49.7547 247.79 47.4507 246.723 45.488C245.656 43.5253 244.206 42.032 242.371 41.008C240.579 39.9413 238.595 39.408 236.419 39.408C234.243 39.408 232.259 39.92 230.467 40.944C228.675 41.968 227.246 43.4613 226.179 45.424C225.112 47.3867 224.579 49.6907 224.579 52.336C224.579 55.024 225.112 57.3707 226.179 59.376C227.246 61.3387 228.675 62.8533 230.467 63.92C232.259 64.944 234.243 65.456 236.419 65.456C238.595 65.456 240.579 64.944 242.371 63.92C244.206 62.8533 245.656 61.3387 246.723 59.376C247.79 57.3707 248.323 55.0453 248.323 52.4ZM269.877 22.64V70H264.053V22.64H269.877ZM285.627 41.392C286.779 39.3867 288.486 37.7227 290.747 36.4C293.051 35.0347 295.718 34.352 298.747 34.352C301.862 34.352 304.678 35.0987 307.195 36.592C309.755 38.0853 311.76 40.1973 313.211 42.928C314.662 45.616 315.387 48.752 315.387 52.336C315.387 55.8773 314.662 59.0347 313.211 61.808C311.76 64.5813 309.755 66.736 307.195 68.272C304.678 69.808 301.862 70.576 298.747 70.576C295.76 70.576 293.115 69.9147 290.811 68.592C288.55 67.2267 286.822 65.5413 285.627 63.536V86.64H279.803V34.928H285.627V41.392ZM309.435 52.336C309.435 49.6907 308.902 47.3867 307.835 45.424C306.768 43.4613 305.318 41.968 303.483 40.944C301.691 39.92 299.707 39.408 297.531 39.408C295.398 39.408 293.414 39.9413 291.579 41.008C289.787 42.032 288.336 43.5467 287.227 45.552C286.16 47.5147 285.627 49.7973 285.627 52.4C285.627 55.0453 286.16 57.3707 287.227 59.376C288.336 61.3387 289.787 62.8533 291.579 63.92C293.414 64.944 295.398 65.456 297.531 65.456C299.707 65.456 301.691 64.944 303.483 63.92C305.318 62.8533 306.768 61.3387 307.835 59.376C308.902 57.3707 309.435 55.024 309.435 52.336ZM324.909 70.384C323.8 70.384 322.861 70 322.093 69.232C321.325 68.464 320.941 67.5253 320.941 66.416C320.941 65.3067 321.325 64.368 322.093 63.6C322.861 62.832 323.8 62.448 324.909 62.448C325.976 62.448 326.872 62.832 327.597 63.6C328.365 64.368 328.749 65.3067 328.749 66.416C328.749 67.5253 328.365 68.464 327.597 69.232C326.872 70 325.976 70.384 324.909 70.384ZM350.955 34.352C353.984 34.352 356.629 35.0133 358.891 36.336C361.195 37.6587 362.901 39.3227 364.011 41.328V34.928H369.899V70.768C369.899 73.968 369.216 76.8053 367.851 79.28C366.485 81.7973 364.523 83.76 361.963 85.168C359.445 86.576 356.501 87.28 353.131 87.28C348.523 87.28 344.683 86.192 341.611 84.016C338.539 81.84 336.725 78.8747 336.171 75.12H341.931C342.571 77.2533 343.893 78.96 345.899 80.24C347.904 81.5627 350.315 82.224 353.131 82.224C356.331 82.224 358.933 81.2213 360.939 79.216C362.987 77.2107 364.011 74.3947 364.011 70.768V63.408C362.859 65.456 361.152 67.1627 358.891 68.528C356.629 69.8933 353.984 70.576 350.955 70.576C347.84 70.576 345.003 69.808 342.443 68.272C339.925 66.736 337.941 64.5813 336.491 61.808C335.04 59.0347 334.315 55.8773 334.315 52.336C334.315 48.752 335.04 45.616 336.491 42.928C337.941 40.1973 339.925 38.0853 342.443 36.592C345.003 35.0987 347.84 34.352 350.955 34.352ZM364.011 52.4C364.011 49.7547 363.477 47.4507 362.411 45.488C361.344 43.5253 359.893 42.032 358.059 41.008C356.267 39.9413 354.283 39.408 352.107 39.408C349.931 39.408 347.947 39.92 346.155 40.944C344.363 41.968 342.933 43.4613 341.867 45.424C340.8 47.3867 340.267 49.6907 340.267 52.336C340.267 55.024 340.8 57.3707 341.867 59.376C342.933 61.3387 344.363 62.8533 346.155 63.92C347.947 64.944 349.931 65.456 352.107 65.456C354.283 65.456 356.267 64.944 358.059 63.92C359.893 62.8533 361.344 61.3387 362.411 59.376C363.477 57.3707 364.011 55.0453 364.011 52.4ZM394.205 34.352C397.234 34.352 399.879 35.0133 402.141 36.336C404.445 37.6587 406.151 39.3227 407.261 41.328V34.928H413.149V70.768C413.149 73.968 412.466 76.8053 411.101 79.28C409.735 81.7973 407.773 83.76 405.213 85.168C402.695 86.576 399.751 87.28 396.381 87.28C391.773 87.28 387.933 86.192 384.861 84.016C381.789 81.84 379.975 78.8747 379.421 75.12H385.181C385.821 77.2533 387.143 78.96 389.149 80.24C391.154 81.5627 393.565 82.224 396.381 82.224C399.581 82.224 402.183 81.2213 404.189 79.216C406.237 77.2107 407.261 74.3947 407.261 70.768V63.408C406.109 65.456 404.402 67.1627 402.141 68.528C399.879 69.8933 397.234 70.576 394.205 70.576C391.09 70.576 388.253 69.808 385.693 68.272C383.175 66.736 381.191 64.5813 379.741 61.808C378.29 59.0347 377.565 55.8773 377.565 52.336C377.565 48.752 378.29 45.616 379.741 42.928C381.191 40.1973 383.175 38.0853 385.693 36.592C388.253 35.0987 391.09 34.352 394.205 34.352ZM407.261 52.4C407.261 49.7547 406.727 47.4507 405.661 45.488C404.594 43.5253 403.143 42.032 401.309 41.008C399.517 39.9413 397.533 39.408 395.357 39.408C393.181 39.408 391.197 39.92 389.405 40.944C387.613 41.968 386.183 43.4613 385.117 45.424C384.05 47.3867 383.517 49.6907 383.517 52.336C383.517 55.024 384.05 57.3707 385.117 59.376C386.183 61.3387 387.613 62.8533 389.405 63.92C391.197 64.944 393.181 65.456 395.357 65.456C397.533 65.456 399.517 64.944 401.309 63.92C403.143 62.8533 404.594 61.3387 405.661 59.376C406.727 57.3707 407.261 55.0453 407.261 52.4Z" fill="white"/>
</svg>
